<mxfile host="app.diagrams.net" agent="Mozilla/5.0 (X11; Linux x86_64) AppleWebKit/537.36 (KHTML, like Gecko) Chrome/129.0.0.0 Safari/537.36" version="24.8.0">
  <diagram id="C5RBs43oDa-KdzZeNtuy" name="Page-1">
    <mxGraphModel dx="1434" dy="754" grid="1" gridSize="10" guides="1" tooltips="1" connect="1" arrows="1" fold="1" page="1" pageScale="1" pageWidth="827" pageHeight="1169" math="0" shadow="0">
      <root>
        <mxCell id="WIyWlLk6GJQsqaUBKTNV-0" />
        <mxCell id="WIyWlLk6GJQsqaUBKTNV-1" parent="WIyWlLk6GJQsqaUBKTNV-0" />
        <mxCell id="KaLArbdQW9kvSMcHce2E-58" value="" style="rounded=0;whiteSpace=wrap;html=1;" vertex="1" parent="WIyWlLk6GJQsqaUBKTNV-1">
          <mxGeometry x="40" y="520" width="640" height="200" as="geometry" />
        </mxCell>
        <mxCell id="KaLArbdQW9kvSMcHce2E-49" value="" style="rounded=0;whiteSpace=wrap;html=1;" vertex="1" parent="WIyWlLk6GJQsqaUBKTNV-1">
          <mxGeometry x="310" y="560" width="350" height="140" as="geometry" />
        </mxCell>
        <mxCell id="KaLArbdQW9kvSMcHce2E-48" value="" style="rounded=0;whiteSpace=wrap;html=1;" vertex="1" parent="WIyWlLk6GJQsqaUBKTNV-1">
          <mxGeometry x="60.75" y="560" width="199.25" height="140" as="geometry" />
        </mxCell>
        <mxCell id="KaLArbdQW9kvSMcHce2E-44" value="" style="rounded=0;whiteSpace=wrap;html=1;" vertex="1" parent="WIyWlLk6GJQsqaUBKTNV-1">
          <mxGeometry x="40.75" y="240" width="639.25" height="220" as="geometry" />
        </mxCell>
        <mxCell id="KaLArbdQW9kvSMcHce2E-14" style="edgeStyle=orthogonalEdgeStyle;rounded=0;orthogonalLoop=1;jettySize=auto;html=1;exitX=0.5;exitY=1;exitDx=0;exitDy=0;entryX=0.5;entryY=0;entryDx=0;entryDy=0;" edge="1" parent="WIyWlLk6GJQsqaUBKTNV-1" source="KaLArbdQW9kvSMcHce2E-0" target="KaLArbdQW9kvSMcHce2E-1">
          <mxGeometry relative="1" as="geometry" />
        </mxCell>
        <mxCell id="KaLArbdQW9kvSMcHce2E-0" value="User" style="rounded=1;whiteSpace=wrap;html=1;fontSize=12;glass=0;strokeWidth=1;shadow=0;" vertex="1" parent="WIyWlLk6GJQsqaUBKTNV-1">
          <mxGeometry x="300" y="40" width="120" height="40" as="geometry" />
        </mxCell>
        <mxCell id="KaLArbdQW9kvSMcHce2E-1" value="UI" style="rounded=1;whiteSpace=wrap;html=1;fontSize=12;glass=0;strokeWidth=1;shadow=0;" vertex="1" parent="WIyWlLk6GJQsqaUBKTNV-1">
          <mxGeometry x="61.5" y="141" width="598.5" height="40" as="geometry" />
        </mxCell>
        <mxCell id="KaLArbdQW9kvSMcHce2E-2" value="Address lookup" style="rounded=1;whiteSpace=wrap;html=1;fontSize=12;glass=0;strokeWidth=1;shadow=0;" vertex="1" parent="WIyWlLk6GJQsqaUBKTNV-1">
          <mxGeometry x="61.5" y="280" width="160" height="40" as="geometry" />
        </mxCell>
        <mxCell id="KaLArbdQW9kvSMcHce2E-3" value="Daily Forecast" style="rounded=1;whiteSpace=wrap;html=1;fontSize=12;glass=0;strokeWidth=1;shadow=0;" vertex="1" parent="WIyWlLk6GJQsqaUBKTNV-1">
          <mxGeometry x="500" y="280" width="160" height="40" as="geometry" />
        </mxCell>
        <mxCell id="KaLArbdQW9kvSMcHce2E-4" value="Current Weather" style="rounded=1;whiteSpace=wrap;html=1;fontSize=12;glass=0;strokeWidth=1;shadow=0;" vertex="1" parent="WIyWlLk6GJQsqaUBKTNV-1">
          <mxGeometry x="281.5" y="280" width="160" height="40" as="geometry" />
        </mxCell>
        <mxCell id="KaLArbdQW9kvSMcHce2E-7" value="Openweater API" style="rounded=1;whiteSpace=wrap;html=1;fontSize=12;glass=0;strokeWidth=1;shadow=0;" vertex="1" parent="WIyWlLk6GJQsqaUBKTNV-1">
          <mxGeometry x="330" y="580" width="201.13" height="40" as="geometry" />
        </mxCell>
        <mxCell id="KaLArbdQW9kvSMcHce2E-9" value="Mapbox API" style="rounded=1;whiteSpace=wrap;html=1;fontSize=12;glass=0;strokeWidth=1;shadow=0;" vertex="1" parent="WIyWlLk6GJQsqaUBKTNV-1">
          <mxGeometry x="80.75" y="580" width="120" height="40" as="geometry" />
        </mxCell>
        <mxCell id="KaLArbdQW9kvSMcHce2E-10" value="Heremaps API&lt;br&gt;(backup)" style="rounded=1;whiteSpace=wrap;html=1;fontSize=12;glass=0;strokeWidth=1;shadow=0;" vertex="1" parent="WIyWlLk6GJQsqaUBKTNV-1">
          <mxGeometry x="121.87999999999998" y="640" width="120" height="40" as="geometry" />
        </mxCell>
        <mxCell id="KaLArbdQW9kvSMcHce2E-11" value="Weatherbit API (backup)" style="rounded=1;whiteSpace=wrap;html=1;fontSize=12;glass=0;strokeWidth=1;shadow=0;" vertex="1" parent="WIyWlLk6GJQsqaUBKTNV-1">
          <mxGeometry x="441.13" y="640" width="201.13" height="40" as="geometry" />
        </mxCell>
        <mxCell id="KaLArbdQW9kvSMcHce2E-21" value="Cache (Redis)" style="rounded=1;whiteSpace=wrap;html=1;fontSize=12;glass=0;strokeWidth=1;shadow=0;" vertex="1" parent="WIyWlLk6GJQsqaUBKTNV-1">
          <mxGeometry x="62.25" y="380" width="598.5" height="40" as="geometry" />
        </mxCell>
        <mxCell id="KaLArbdQW9kvSMcHce2E-22" value="" style="endArrow=classic;html=1;rounded=0;entryX=0.5;entryY=0;entryDx=0;entryDy=0;" edge="1" parent="WIyWlLk6GJQsqaUBKTNV-1">
          <mxGeometry width="50" height="50" relative="1" as="geometry">
            <mxPoint x="140.75" y="180" as="sourcePoint" />
            <mxPoint x="140.25" y="280" as="targetPoint" />
          </mxGeometry>
        </mxCell>
        <mxCell id="KaLArbdQW9kvSMcHce2E-25" value="" style="endArrow=classic;html=1;rounded=0;entryX=0.5;entryY=0;entryDx=0;entryDy=0;" edge="1" parent="WIyWlLk6GJQsqaUBKTNV-1">
          <mxGeometry width="50" height="50" relative="1" as="geometry">
            <mxPoint x="360.75" y="180" as="sourcePoint" />
            <mxPoint x="360.25" y="280" as="targetPoint" />
          </mxGeometry>
        </mxCell>
        <mxCell id="KaLArbdQW9kvSMcHce2E-27" value="" style="endArrow=classic;html=1;rounded=0;entryX=0.5;entryY=0;entryDx=0;entryDy=0;" edge="1" parent="WIyWlLk6GJQsqaUBKTNV-1">
          <mxGeometry width="50" height="50" relative="1" as="geometry">
            <mxPoint x="579.25" y="180" as="sourcePoint" />
            <mxPoint x="578.75" y="280" as="targetPoint" />
          </mxGeometry>
        </mxCell>
        <mxCell id="KaLArbdQW9kvSMcHce2E-35" value="" style="endArrow=classic;html=1;rounded=0;" edge="1" parent="WIyWlLk6GJQsqaUBKTNV-1">
          <mxGeometry width="50" height="50" relative="1" as="geometry">
            <mxPoint x="120.5" y="320" as="sourcePoint" />
            <mxPoint x="120" y="380" as="targetPoint" />
          </mxGeometry>
        </mxCell>
        <mxCell id="KaLArbdQW9kvSMcHce2E-36" value="" style="endArrow=classic;html=1;rounded=0;" edge="1" parent="WIyWlLk6GJQsqaUBKTNV-1">
          <mxGeometry width="50" height="50" relative="1" as="geometry">
            <mxPoint x="340.5" y="320" as="sourcePoint" />
            <mxPoint x="340" y="380" as="targetPoint" />
          </mxGeometry>
        </mxCell>
        <mxCell id="KaLArbdQW9kvSMcHce2E-37" value="" style="endArrow=classic;html=1;rounded=0;" edge="1" parent="WIyWlLk6GJQsqaUBKTNV-1">
          <mxGeometry width="50" height="50" relative="1" as="geometry">
            <mxPoint x="559" y="320" as="sourcePoint" />
            <mxPoint x="559" y="380" as="targetPoint" />
          </mxGeometry>
        </mxCell>
        <mxCell id="KaLArbdQW9kvSMcHce2E-38" value="" style="endArrow=classic;html=1;rounded=0;" edge="1" parent="WIyWlLk6GJQsqaUBKTNV-1" target="KaLArbdQW9kvSMcHce2E-48">
          <mxGeometry width="50" height="50" relative="1" as="geometry">
            <mxPoint x="162.63" y="320" as="sourcePoint" />
            <mxPoint x="160" y="520" as="targetPoint" />
          </mxGeometry>
        </mxCell>
        <mxCell id="KaLArbdQW9kvSMcHce2E-46" value="Backend" style="text;html=1;align=center;verticalAlign=middle;resizable=0;points=[];autosize=1;strokeColor=none;fillColor=none;" vertex="1" parent="WIyWlLk6GJQsqaUBKTNV-1">
          <mxGeometry x="40.75" y="210" width="70" height="30" as="geometry" />
        </mxCell>
        <mxCell id="KaLArbdQW9kvSMcHce2E-47" value="Frontend" style="text;html=1;align=center;verticalAlign=middle;resizable=0;points=[];autosize=1;strokeColor=none;fillColor=none;" vertex="1" parent="WIyWlLk6GJQsqaUBKTNV-1">
          <mxGeometry x="60.75" y="111" width="70" height="30" as="geometry" />
        </mxCell>
        <mxCell id="KaLArbdQW9kvSMcHce2E-50" value="" style="endArrow=classic;html=1;rounded=0;entryX=0.2;entryY=0.007;entryDx=0;entryDy=0;entryPerimeter=0;" edge="1" parent="WIyWlLk6GJQsqaUBKTNV-1" target="KaLArbdQW9kvSMcHce2E-49">
          <mxGeometry width="50" height="50" relative="1" as="geometry">
            <mxPoint x="382.63" y="320" as="sourcePoint" />
            <mxPoint x="380" y="543" as="targetPoint" />
          </mxGeometry>
        </mxCell>
        <mxCell id="KaLArbdQW9kvSMcHce2E-51" value="" style="endArrow=classic;html=1;rounded=0;entryX=0.829;entryY=-0.007;entryDx=0;entryDy=0;entryPerimeter=0;" edge="1" parent="WIyWlLk6GJQsqaUBKTNV-1" target="KaLArbdQW9kvSMcHce2E-49">
          <mxGeometry width="50" height="50" relative="1" as="geometry">
            <mxPoint x="602.63" y="320" as="sourcePoint" />
            <mxPoint x="600" y="520" as="targetPoint" />
          </mxGeometry>
        </mxCell>
        <mxCell id="KaLArbdQW9kvSMcHce2E-57" value="External services" style="text;html=1;align=center;verticalAlign=middle;resizable=0;points=[];autosize=1;strokeColor=none;fillColor=none;" vertex="1" parent="WIyWlLk6GJQsqaUBKTNV-1">
          <mxGeometry x="20.750000000000004" y="490" width="110" height="30" as="geometry" />
        </mxCell>
        <mxCell id="KaLArbdQW9kvSMcHce2E-59" value="Geo" style="text;html=1;align=center;verticalAlign=middle;resizable=0;points=[];autosize=1;strokeColor=none;fillColor=none;" vertex="1" parent="WIyWlLk6GJQsqaUBKTNV-1">
          <mxGeometry x="40.75" y="530" width="50" height="30" as="geometry" />
        </mxCell>
        <mxCell id="KaLArbdQW9kvSMcHce2E-60" value="Meteo" style="text;html=1;align=center;verticalAlign=middle;resizable=0;points=[];autosize=1;strokeColor=none;fillColor=none;" vertex="1" parent="WIyWlLk6GJQsqaUBKTNV-1">
          <mxGeometry x="310" y="530" width="60" height="30" as="geometry" />
        </mxCell>
      </root>
    </mxGraphModel>
  </diagram>
</mxfile>
